<svg xmlns="http://www.w3.org/2000/svg" viewBox="0 0 64 64" fill="none">
  <defs>
    <linearGradient id="bg" x1="10" y1="6" x2="56" y2="58" gradientUnits="userSpaceOnUse">
      <stop stop-color="#0B1E24" />
      <stop offset="1" stop-color="#041116" />
    </linearGradient>
    <radialGradient id="glow" cx="0" cy="0" r="1" gradientTransform="translate(28 16) rotate(48) scale(32 40)" gradientUnits="userSpaceOnUse">
      <stop stop-color="#10B981" stop-opacity="0.24" />
      <stop offset="1" stop-color="#10B981" stop-opacity="0" />
    </radialGradient>
    <linearGradient id="stroke" x1="14" y1="46" x2="50" y2="16" gradientUnits="userSpaceOnUse">
      <stop stop-color="#10B981" />
      <stop offset="0.55" stop-color="#2DD4BF" />
      <stop offset="1" stop-color="#D9F99D" />
    </linearGradient>
    <linearGradient id="node" x1="16" y1="44" x2="46" y2="18" gradientUnits="userSpaceOnUse">
      <stop stop-color="#A7F3D0" />
      <stop offset="0.55" stop-color="#67E8F9" />
      <stop offset="1" stop-color="#D9F99D" />
    </linearGradient>
    <filter id="shadow" x="-50%" y="-50%" width="200%" height="200%">
      <feDropShadow dx="0" dy="0" stdDeviation="2.4" flood-color="#10B981" flood-opacity="0.22" />
    </filter>
    <marker id="arrow" viewBox="0 0 12 12" refX="9.6" refY="6" markerWidth="4.6" markerHeight="4.6" orient="auto">
      <path d="M1 1L11 6L1 11" fill="none" stroke="#D9F99D" stroke-width="2" stroke-linecap="round" stroke-linejoin="round" />
    </marker>
  </defs>
  <rect x="4" y="4" width="56" height="56" rx="18" fill="url(#bg)" />
  <rect x="4.75" y="4.75" width="54.5" height="54.5" rx="17.25" stroke="#2DD4BF" stroke-opacity="0.18" stroke-width="1.5" />
  <circle cx="24" cy="18" r="22" fill="url(#glow)" />
  <g filter="url(#shadow)">
    <path d="M14 46L33 35L48 16" stroke="#2DD4BF" stroke-opacity="0.34" stroke-width="1.75" stroke-linecap="round" stroke-linejoin="round" />
    <path d="M24 23L33 35L44 28" stroke="#67E8F9" stroke-opacity="0.32" stroke-width="1.75" stroke-linecap="round" stroke-linejoin="round" />
    <path d="M14 46L24 23L33 35L48 16" stroke="url(#stroke)" stroke-width="5.75" stroke-linecap="round" stroke-linejoin="round" marker-end="url(#arrow)" />
    <circle cx="14" cy="46" r="3.6" fill="url(#node)" stroke="#06161A" stroke-width="1.5" />
    <circle cx="24" cy="23" r="3.6" fill="url(#node)" stroke="#06161A" stroke-width="1.5" />
    <circle cx="33" cy="35" r="4" fill="url(#node)" stroke="#06161A" stroke-width="1.5" />
    <circle cx="44" cy="28" r="3.2" fill="url(#node)" stroke="#06161A" stroke-width="1.5" />
  </g>
</svg>
